<svg xmlns="http://www.w3.org/2000/svg" version="1.1" xmlns:xlink="http://www.w3.org/1999/xlink" width="36.11" height="36.11"><svg xmlns="http://www.w3.org/2000/svg" viewBox="0 0 36.11 36.11"><defs><style>.cls-1{fill:#fff;}.cls-2{fill:#ec1c24;}</style></defs><title>favicon</title><g id="SvgjsG1003" data-name="Слой 2"><g id="SvgjsG1002" data-name="Layer 1"><rect class="cls-1" width="36.11" height="36.11"></rect><path class="cls-2" d="M35.16,28.85c0,1.92-.46,3.49-1,3.49H17.51c-.56,0-1-1.57-1-3.49V6.73c0-1.92.46-3.5,1-3.5H34.14c.56,0,1,1.58,1,3.5Z"></path><path d="M6,21.31,1,5.51H6.7l2.2,10H9l2.2-10h5.7l-5,15.9v9.2H6Z"></path><path class="cls-1" d="M18.56,30.61V5.51h7.2c4.7,0,7.7,1.1,7.7,5.4v4.6c0,3.8-3.3,5.4-6.8,5.4h-2.1v9.7Zm5.8-13.3h.9c2,0,2.2-1.1,2.2-4.1s-.1-4.1-2.2-4.1h-.9Z"></path></g></g></svg><style>@media (prefers-color-scheme: light) { :root { filter: none; } }
@media (prefers-color-scheme: dark) { :root { filter: none; } }
</style></svg>