<svg xmlns="http://www.w3.org/2000/svg" viewBox="0 0 308 108.1"><defs><style>.cls-4{fill:#3f3f3e}</style></defs><ellipse cx="190.5" cy="21.1" rx="22.6" ry="19.1" style="fill:none;stroke:#fff;stroke-miterlimit:10;stroke-width:4px"/><path d="M64.2 65.6H46.4L17 108H0l32.2-45q-11.8-2.6-18-9.8A29 29 0 0 1 8 33.6q0-8.5 2.8-14.4t8-9.8A28 28 0 0 1 31 3.8Q38 2 46.7 2h31.5v106h-14zm0-12.6V14.6H46.7q-5.4 0-9.7 1-4.5.9-7.6 3.1a15 15 0 0 0-5 5.9 20 20 0 0 0-1.7 9q0 10 5.7 14.7Q34.4 53 45.3 53z" style="fill:#fff"/><rect width="220.4" height="85.4" x="87.6" y="22.6" rx="14.6" ry="14.6" style="fill:#ed1c24"/><path d="M134.2 47.2h-21.4V89h-8.7V39.8H143V89h-8.7zM173.6 89l-.6-5.1a15 15 0 0 1-4.2 4q-1.4.8-3 1.3c-1.7.5-2.5.4-4 .4q-2.3 0-4.2-.6-2.1-.6-3.6-2a9 9 0 0 1-2.3-3.2 11 11 0 0 1-.9-4.5q0-5.8 4.2-8.9c4.2-3 7.3-3 13.2-3h4.5v-1.8q0-3.5-1.9-4.8c-1.9-1.3-3-1.4-5.6-1.4q-3.3 0-6 1c-2.7 1-3.4 1.2-5 2l-1.6-6.6a29 29 0 0 1 13.6-3.2q7 0 11 3 3.9 3 3.9 9.3v21.3l.1 1.5.1 1.2zm-9.4-5.7q1.5 0 3-.5c1.4-.5 1.6-.7 2.3-1.2l1.9-1.6q.9-.9 1.3-1.8v-5.4h-4q-5.3 0-7.4 1.5a5 5 0 0 0-2.2 4.1q0 2.3 1.3 3.6t3.8 1.3M201.2 74.6H198V89h-8.3V53.3h8.3V68h3.3l11.1-14.7h8.7l-13.3 17.1 14 18.5h-10zM255.7 86.2l-1.4.9q-1 .6-2.6 1c-1.6.5-2.3.8-3.8 1.1a27 27 0 0 1-5.3.4q-9.8 0-14.6-4.8A19 19 0 0 1 223 71q0-4.3 1.3-7.8 1.4-3.4 3.7-5.8 2.3-2.2 5.6-3.6c3.3-1.4 4.5-1.3 7.1-1.3s5.1.5 7.2 1.3q3.3 1.4 5.4 4c2 2.5 2.3 3.9 2.9 6.5a25 25 0 0 1 0 9h-24.5q.5 4.8 3.2 7 2.7 2.4 8 2.4a20 20 0 0 0 9.5-2.3l1.3-.9zm-14.8-27.1q-3.6 0-6 2a11 11 0 0 0-3 6.2h16.4q.2-4.1-1.9-6.1a8 8 0 0 0-5.6-2.1M279.6 60.1V89h-8.3V60h-10.5v-6.8h29.5v6.8z" class="cls-4"/></svg>