<svg xmlns="http://www.w3.org/2000/svg" id="_Слой_2" data-name="Слой 2" viewBox="0 0 308 107.5"><defs><style>.cls-1{fill:#fff}</style></defs><g id="Layer_1" data-name="Layer 1"><ellipse cx="190.5" cy="20.5" rx="22.6" ry="19.1" style="fill:none;stroke:#231f20;stroke-miterlimit:10;stroke-width:2.83px"/><path d="M64.2 65H46.4L17 107.5H0l32.2-45q-11.8-2.6-18-9.7A29 29 0 0 1 8 33q0-8.5 2.8-14.4a26 26 0 0 1 8-9.8Q23.8 5 31 3.2t15.7-1.8h31.5v106h-14zm0-12.6V14H46.7q-5.4 0-9.7 1-4.5 1-7.6 3.2a15 15 0 0 0-5 5.8 20 20 0 0 0-1.7 9q0 10 5.7 14.7 5.9 4.7 16.8 4.7z" style="fill:#0a0203"/><rect width="220.4" height="85.4" x="87.6" y="22.1" rx="14.6" ry="14.6" style="fill:#ed1c24"/><path d="M134.2 46.7h-21.4v41.7h-8.7V39.2H143v49.2h-8.7zM173.6 88.4l-.6-5.1a15 15 0 0 1-4.2 4q-1.4.8-3 1.3c-1.7.5-2.5.5-4 .5q-2.3 0-4.2-.7-2.1-.5-3.6-2a9 9 0 0 1-2.3-3.2 11 11 0 0 1-.9-4.5q0-5.8 4.2-8.8c4.2-3 7.3-3 13.2-3h4.5V65q0-3.5-1.9-4.8c-1.9-1.3-3-1.4-5.6-1.4q-3.3 0-6 1-2.7.8-5 2l-1.6-6.6a29 29 0 0 1 13.6-3.1q7 0 11 2.9 3.9 3 3.9 9.3v21.3l.1 1.6.1 1.2zm-9.4-5.7q1.5 0 3-.5a11 11 0 0 0 4.2-2.8q.8-.9 1.3-1.8v-5.4h-4q-5.3 0-7.4 1.5a5 5 0 0 0-2.2 4.1q0 2.3 1.3 3.6t3.8 1.3M201.2 74H198v14.4h-8.3V52.8h8.3v14.6h3.3l11.1-14.6h8.7l-13.3 17 14 18.6h-10zM255.7 85.7l-1.4.8-2.6 1.1a26 26 0 0 1-9 1.5q-9.9 0-14.7-5a19 19 0 0 1-4.9-13.6q0-4.3 1.3-7.7t3.7-5.8 5.6-3.7q3.2-1.2 7.1-1.2c4 0 5.1.4 7.2 1.3q3.3 1.2 5.4 3.9c2 2.7 2.3 3.9 2.9 6.5a25 25 0 0 1 0 9h-24.5q.5 4.8 3.2 7.1t8 2.3a20 20 0 0 0 9.5-2.3l1.3-.8zm-14.8-27.2q-3.6 0-6 2a11 11 0 0 0-3 6.3h16.4q.2-4.1-1.9-6.2a8 8 0 0 0-5.6-2M279.6 59.6v28.8h-8.3V59.5h-10.5v-6.8h29.5v6.8z" class="cls-1"/></g></svg>